<svg width="32" height="32" viewBox="0 0 32 32" fill="none" xmlns="http://www.w3.org/2000/svg">
    <path
        d="M0 12.8C0 8.31958 0 6.07937 0.871948 4.36808C1.63893 2.86278 2.86278 1.63893 4.36808 0.871948C6.07937 0 8.31958 0 12.8 0H19.2C23.6804 0 25.9206 0 27.6319 0.871948C29.1372 1.63893 30.3611 2.86278 31.1281 4.36808C32 6.07937 32 8.31958 32 12.8V19.2C32 23.6804 32 25.9206 31.1281 27.6319C30.3611 29.1372 29.1372 30.3611 27.6319 31.1281C25.9206 32 23.6804 32 19.2 32H12.8C8.31958 32 6.07937 32 4.36808 31.1281C2.86278 30.3611 1.63893 29.1372 0.871948 27.6319C0 25.9206 0 23.6804 0 19.2V12.8Z"
        fill="#344054" />
    <g filter="url(#filter0_d_92_37363)">
        <path
            d="M10.5819 3.80798L16.0006 16L21.4193 28.192M3.80859 22.7733L16.0006 16L3.80859 22.7733ZM10.311 28.192H21.6902C23.9663 28.192 25.1042 28.192 25.9736 27.749C26.7384 27.3594 27.36 26.7377 27.7496 25.973C28.1926 25.1036 28.1926 23.9657 28.1926 21.6896V10.3104C28.1926 8.03433 28.1926 6.8963 27.7496 6.02697C27.36 5.26227 26.7384 4.64056 25.9736 4.25093C25.1042 3.80798 23.9663 3.80798 21.6902 3.80798H10.311C8.03494 3.80798 6.89691 3.80798 6.02758 4.25093C5.26288 4.64056 4.64117 5.26227 4.25154 6.02697C3.80859 6.8963 3.80859 8.03433 3.80859 10.3104V21.6896C3.80859 23.9657 3.80859 25.1036 4.25154 25.973C4.64117 26.7377 5.26288 27.3594 6.02758 27.749C6.89691 28.192 8.03494 28.192 10.311 28.192Z"
            fill="black" fill-opacity="0.1" shape-rendering="crispEdges" />
    </g>
    <path d="M3.80859 22.7733L16.0006 16L3.80859 22.7733Z" fill="#0086C9" />
    <path
        d="M3.80859 22.7733L16.0006 16L21.4193 28.192H10.311C8.03494 28.192 6.89691 28.192 6.02758 27.749C5.26288 27.3594 4.64117 26.7378 4.25154 25.9731C3.80859 25.1036 3.80859 25.0494 3.80859 22.7733Z"
        fill="#0086C9" />
    <path
        d="M10.5819 3.80798L16.0006 16M21.4193 28.192L16.0006 16M3.80859 22.7733L16.0006 16M10.311 28.192H21.6902C23.9663 28.192 25.1042 28.192 25.9736 27.749C26.7384 27.3594 27.36 26.7377 27.7496 25.973C28.1926 25.1036 28.1926 23.9657 28.1926 21.6896V10.3104C28.1926 8.03433 28.1926 6.8963 27.7496 6.02697C27.36 5.26227 26.7384 4.64056 25.9736 4.25093C25.1042 3.80798 23.9663 3.80798 21.6902 3.80798H10.311C8.03494 3.80798 6.89691 3.80798 6.02758 4.25093C5.26288 4.64056 4.64117 5.26227 4.25154 6.02697C3.80859 6.8963 3.80859 8.03433 3.80859 10.3104V21.6896C3.80859 23.9657 3.80859 25.1036 4.25154 25.973C4.64117 26.7377 5.26288 27.3594 6.02758 27.749C6.89691 28.192 8.03494 28.192 10.311 28.192Z"
        stroke="white" stroke-width="2.39672" stroke-linecap="round" stroke-linejoin="round" />
    <defs>
        <filter id="filter0_d_92_37363" x="1.30767" y="1.30706" width="29.3858" height="29.3858"
            filterUnits="userSpaceOnUse" color-interpolation-filters="sRGB">
            <feFlood flood-opacity="0" result="BackgroundImageFix" />
            <feColorMatrix in="SourceAlpha" type="matrix"
                values="0 0 0 0 0 0 0 0 0 0 0 0 0 0 0 0 0 0 127 0" result="hardAlpha" />
            <feOffset />
            <feGaussianBlur stdDeviation="1.25046" />
            <feComposite in2="hardAlpha" operator="out" />
            <feColorMatrix type="matrix" values="0 0 0 0 1 0 0 0 0 1 0 0 0 0 1 0 0 0 0.28 0" />
            <feBlend mode="normal" in2="BackgroundImageFix" result="effect1_dropShadow_92_37363" />
            <feBlend mode="normal" in="SourceGraphic" in2="effect1_dropShadow_92_37363"
                result="shape" />
        </filter>
    </defs>
</svg>