<svg
  width="865"
  height="727"
  viewBox="0 0 865 727"
  fill="none"
  xmlns="http://www.w3.org/2000/svg"
>
<g opacity="0.2">
<g clip-path="url(#clip0_267_1968)">
<path
        d="M-13.9324 290.604C-49.5976 188.883 -67.4301 138.023 -61.2628 92.2107C-55.8379 51.9132 -37.8037 14.359 -9.74513 -15.0694C22.1533 -48.525 72.9967 -66.4062 174.684 -102.169L318.95 -152.905C420.637 -188.668 471.48 -206.549 517.26 -200.412C557.53 -195.014 595.048 -176.997 624.438 -148.944C657.85 -117.051 675.682 -66.1907 711.347 35.5304L762.25 180.711C797.915 282.432 815.748 333.293 809.581 379.105C804.156 419.402 786.121 456.956 758.063 486.385C726.164 519.84 675.321 537.722 573.634 573.484L429.368 624.221C327.681 659.983 276.838 677.864 231.057 671.728C190.788 666.329 153.27 648.313 123.88 620.259C90.468 588.367 72.6354 537.506 36.9703 435.785L-13.9324 290.604Z"
        fill="#344054"
      />
<rect
        y="-4.41304e-06"
        width="1440"
        height="733.397"
        fill="url(#paint0_linear_267_1968)"
      />
</g>
</g>
<defs>
<linearGradient
      id="paint0_linear_267_1968"
      x1="710.092"
      y1="733.397"
      x2="710.092"
      y2="35.4192"
      gradientUnits="userSpaceOnUse"
    >
<stop stop-color="white" />
<stop offset="1" stop-color="#737373" />
</linearGradient>
<clipPath id="clip0_267_1968">
<path
        d="M-13.9324 290.604C-49.5976 188.883 -67.4301 138.023 -61.2628 92.2107C-55.8379 51.9132 -37.8037 14.359 -9.74513 -15.0694C22.1533 -48.525 72.9967 -66.4062 174.684 -102.169L318.95 -152.905C420.637 -188.668 471.48 -206.549 517.26 -200.412C557.53 -195.014 595.048 -176.997 624.438 -148.944C657.85 -117.051 675.682 -66.1907 711.347 35.5304L762.25 180.711C797.915 282.432 815.748 333.293 809.581 379.105C804.156 419.402 786.121 456.956 758.063 486.385C726.164 519.84 675.321 537.722 573.634 573.484L429.368 624.221C327.681 659.983 276.838 677.864 231.057 671.728C190.788 666.329 153.27 648.313 123.88 620.259C90.468 588.367 72.6354 537.506 36.9703 435.785L-13.9324 290.604Z"
        fill="white"
      />
</clipPath>
</defs>
</svg>
