<svg width="70" height="27" viewBox="0 0 70 27" fill="none" xmlns="http://www.w3.org/2000/svg">
<g filter="url(#filter0_d_129_34)">
<path d="M9.99316 8.08151C11.4247 8.08152 12.6211 8.26753 13.582 8.64011C14.5626 9.01274 15.3084 9.56193 15.8184 10.2876C16.3479 11.0132 16.6123 11.9256 16.6123 13.0239V20.0551C16.6124 20.408 16.7102 20.6726 16.9062 20.8491C17.122 21.006 17.3574 21.0844 17.6123 21.0844H18.583V23.7612C18.3869 23.8593 18.0827 23.9581 17.6709 24.0561C17.2591 24.1737 16.7591 24.2319 16.1709 24.2319C15.6023 24.2319 15.0926 24.1437 14.6416 23.9673C14.2101 23.8104 13.8469 23.5847 13.5527 23.2905C13.2587 22.9768 13.0522 22.6046 12.9346 22.1733H12.7285C12.3952 22.585 11.9833 22.9475 11.4932 23.2612C11.0225 23.575 10.4636 23.82 9.81641 23.9966C9.18884 24.1731 8.46332 24.2622 7.63965 24.2622C7.12976 24.2622 6.58052 24.2031 5.99219 24.0854C5.42343 23.9677 4.88394 23.7614 4.37402 23.4673C3.86429 23.1535 3.44272 22.7125 3.10937 22.144C2.79558 21.5556 2.63867 20.8099 2.63867 19.9077C2.63869 18.8291 2.87406 17.9369 3.34473 17.2309C3.81538 16.5249 4.48189 15.9757 5.34473 15.5835C6.22728 15.1716 7.2772 14.8868 8.49316 14.7299C9.709 14.5731 11.0527 14.4946 12.5234 14.4946V13.3471C12.5234 12.8962 12.4449 12.5037 12.2881 12.1704C12.1508 11.837 11.895 11.5725 11.5225 11.3764C11.1695 11.1804 10.6695 11.0825 10.0225 11.0825C9.37525 11.0825 8.84545 11.1609 8.43359 11.3178C8.04171 11.4746 7.75754 11.6803 7.58105 11.935C7.42416 12.1704 7.3457 12.4358 7.3457 12.7299V13.0825H3.37402C3.35443 12.9845 3.34473 12.8962 3.34473 12.8178V12.4653C3.34473 11.5632 3.61896 10.7882 4.16797 10.1411C4.71711 9.47426 5.49196 8.96383 6.49219 8.61081C7.4924 8.2578 8.65955 8.08151 9.99316 8.08151ZM58.0127 8.08151C59.4442 8.08152 60.6406 8.26753 61.6016 8.64011C62.5822 9.01274 63.328 9.56193 63.8379 10.2876C64.3674 11.0132 64.6318 11.9256 64.6318 13.0239V20.0551C64.6319 20.408 64.7298 20.6726 64.9258 20.8491C65.1415 21.006 65.3769 21.0844 65.6318 21.0844H66.6025V23.7612C66.4064 23.8593 66.1023 23.9581 65.6904 24.0561C65.2786 24.1737 64.7786 24.2319 64.1904 24.2319C63.6218 24.2319 63.1121 24.1437 62.6611 23.9673C62.2297 23.8104 61.8665 23.5847 61.5723 23.2905C61.2782 22.9768 61.0718 22.6046 60.9541 22.1733H60.748C60.4147 22.585 60.0028 22.9475 59.5127 23.2612C59.042 23.575 58.4831 23.82 57.8359 23.9966C57.2084 24.1731 56.4829 24.2622 55.6592 24.2622C55.1493 24.2622 54.6 24.2031 54.0117 24.0854C53.443 23.9677 52.9035 23.7614 52.3936 23.4673C51.8838 23.1535 51.4622 22.7125 51.1289 22.144C50.8151 21.5556 50.6582 20.8099 50.6582 19.9077C50.6582 18.8291 50.8936 17.9369 51.3643 17.2309C51.8349 16.5249 52.5014 15.9757 53.3643 15.5835C54.2468 15.1716 55.2967 14.8868 56.5127 14.7299C57.7285 14.5731 59.0722 14.4946 60.543 14.4946V13.3471C60.5429 12.8962 60.4645 12.5037 60.3076 12.1704C60.1703 11.837 59.9146 11.5725 59.542 11.3764C59.189 11.1804 58.689 11.0825 58.042 11.0825C57.3948 11.0825 56.865 11.1609 56.4531 11.3178C56.0612 11.4746 55.7771 11.6803 55.6006 11.935C55.4437 12.1704 55.3652 12.4358 55.3652 12.7299V13.0825H51.3936C51.374 12.9845 51.3643 12.8962 51.3643 12.8178V12.4653C51.3643 11.5632 51.6385 10.7882 52.1875 10.1411C52.7366 9.47426 53.5115 8.96383 54.5117 8.61081C55.5119 8.2578 56.6791 8.08151 58.0127 8.08151ZM23.6748 23.9087H19.5859V2.63913L23.6748 2.63913V23.9087ZM44.1094 8.08151C45.0897 8.08154 45.9328 8.25797 46.6387 8.61081C47.3643 8.96383 47.9338 9.54303 48.3457 10.3471C48.7574 11.1316 48.9629 12.1517 48.9629 13.4067V23.9087H44.874V14.1421C44.874 13.6518 44.8149 13.2391 44.6973 12.9057C44.5992 12.5529 44.4519 12.2785 44.2559 12.0825C44.0598 11.8668 43.8146 11.7098 43.5205 11.6118C43.2264 11.5138 42.9124 11.4643 42.5791 11.4643C42.0301 11.4644 41.5398 11.6116 41.1084 11.9057C40.677 12.1998 40.334 12.6021 40.0791 13.1118C39.8438 13.6217 39.7256 14.2106 39.7256 14.8774V23.9087H35.6367V14.1421C35.6367 13.6518 35.5776 13.2391 35.46 12.9057C35.3619 12.5529 35.2146 12.2785 35.0186 12.0825C34.8224 11.8668 34.5773 11.7098 34.2832 11.6118C34.0087 11.5138 33.6948 11.4643 33.3418 11.4643C32.8124 11.4644 32.3221 11.6116 31.8711 11.9057C31.4397 12.1998 31.0967 12.6021 30.8418 13.1118C30.6064 13.6217 30.4883 14.2106 30.4883 14.8774V23.9087H26.3994V8.43503H29.7822L30.1055 10.5532H30.3115C30.6449 10.0434 31.0373 9.60157 31.4883 9.22897C31.959 8.85634 32.4791 8.57158 33.0479 8.37546C33.6362 8.17937 34.2639 8.08151 34.9307 8.08151C35.9112 8.08153 36.7549 8.27815 37.4609 8.67038C38.1864 9.06264 38.7455 9.69045 39.1377 10.5532H39.3438C39.6772 10.0433 40.0791 9.60161 40.5498 9.22897C41.0205 8.8564 41.5601 8.57156 42.168 8.37546C42.7758 8.17944 43.4231 8.08151 44.1094 8.08151ZM12.5234 17.0249C11.4251 17.0249 10.444 17.1033 9.58105 17.2602C8.71817 17.3975 8.03138 17.6426 7.52148 17.9956C7.0314 18.3485 6.78619 18.8389 6.78613 19.4663C6.78613 19.8192 6.87439 20.1235 7.05078 20.3784C7.22729 20.6333 7.483 20.83 7.81641 20.9673C8.14973 21.1044 8.55197 21.1723 9.02246 21.1723C9.57151 21.1723 10.0618 21.0939 10.4932 20.937C10.9246 20.7605 11.2879 20.5357 11.582 20.2612C11.8762 19.967 12.1009 19.6135 12.2578 19.2016C12.4343 18.7899 12.5234 18.3489 12.5234 17.8784V17.0249ZM60.543 17.0249C59.4447 17.0249 58.4635 17.1033 57.6006 17.2602C56.7377 17.3975 56.0509 17.6426 55.541 17.9956C55.0509 18.3485 54.8057 18.8389 54.8057 19.4663C54.8057 19.8192 54.8939 20.1235 55.0703 20.3784C55.2468 20.6333 55.5025 20.83 55.8359 20.9673C56.1693 21.1044 56.5715 21.1723 57.042 21.1723C57.591 21.1723 58.0813 21.0939 58.5127 20.937C58.9441 20.7605 59.3074 20.5357 59.6016 20.2612C59.8957 19.967 60.1204 19.6135 60.2773 19.2016C60.4538 18.7899 60.5429 18.3489 60.543 17.8784V17.0249Z" fill="#344054"/>
</g>
<defs>
<filter id="filter0_d_129_34" x="-0.000455141" y="2.6226e-06" width="69.2421" height="26.9013" filterUnits="userSpaceOnUse" color-interpolation-filters="sRGB">
<feFlood flood-opacity="0" result="BackgroundImageFix"/>
<feColorMatrix in="SourceAlpha" type="matrix" values="0 0 0 0 0 0 0 0 0 0 0 0 0 0 0 0 0 0 127 0" result="hardAlpha"/>
<feOffset/>
<feGaussianBlur stdDeviation="1.31956"/>
<feComposite in2="hardAlpha" operator="out"/>
<feColorMatrix type="matrix" values="0 0 0 0 1 0 0 0 0 1 0 0 0 0 1 0 0 0 0.28 0"/>
<feBlend mode="normal" in2="BackgroundImageFix" result="effect1_dropShadow_129_34"/>
<feBlend mode="normal" in="SourceGraphic" in2="effect1_dropShadow_129_34" result="shape"/>
</filter>
</defs>
</svg>
