<svg
  width="16"
  height="16"
  viewBox="0 0 16 16"
  fill="none"
  xmlns="http://www.w3.org/2000/svg"
>
<path
    d="M14 9C14.5523 9 15 9.44772 15 10V12.667C14.9999 13.2857 14.7539 13.8789 14.3164 14.3164C13.8789 14.7539 13.2857 14.9999 12.667 15H3.33301C2.71429 14.9999 2.1211 14.7539 1.68359 14.3164C1.24609 13.8789 1.00009 13.2857 1 12.667V10C1 9.44772 1.44772 9 2 9C2.55228 9 3 9.44772 3 10V12.667C3.00009 12.7553 3.03522 12.8399 3.09766 12.9023C3.16009 12.9648 3.24472 12.9999 3.33301 13H12.667C12.7553 12.9999 12.8399 12.9648 12.9023 12.9023C12.9648 12.8399 12.9999 12.7553 13 12.667V10C13 9.44772 13.4477 9 14 9ZM8 1C8.55228 1 9 1.44772 9 2V7.58594L10.627 5.95996C11.0175 5.5696 11.6505 5.56949 12.041 5.95996C12.431 6.35047 12.4312 6.98365 12.041 7.37402L8.70703 10.707C8.56924 10.8448 8.39129 10.9417 8.19238 10.9805C8.1856 10.9818 8.17868 10.9822 8.17188 10.9834C8.11593 10.9931 8.05872 11 8 11C7.94333 11 7.88808 10.9934 7.83398 10.9844C7.8239 10.9827 7.81375 10.9815 7.80371 10.9795C7.74604 10.968 7.69035 10.9516 7.63672 10.9307C7.63126 10.9285 7.62555 10.927 7.62012 10.9248C7.57032 10.9043 7.52292 10.8795 7.47754 10.8516C7.46648 10.8448 7.45518 10.8383 7.44434 10.8311C7.43329 10.8237 7.42284 10.8154 7.41211 10.8076C7.37066 10.7774 7.3304 10.7444 7.29297 10.707L3.95996 7.37402C3.56944 6.9835 3.56944 6.35049 3.95996 5.95996C4.35049 5.56944 4.9835 5.56944 5.37402 5.95996L7 7.58594V2C7 1.44772 7.44772 1 8 1Z"
    fill="currentColor"
  />
</svg>
