<svg width="16" height="16" viewBox="0 0 16 16" fill="none" xmlns="http://www.w3.org/2000/svg">
<path d="M6.66699 1.33334C7.03488 1.33369 7.33301 1.63236 7.33301 2.00034C7.33283 2.36816 7.03478 2.66698 6.66699 2.66733H5.2002C4.62933 2.66733 4.24045 2.66725 3.94043 2.69174C3.64849 2.71561 3.49876 2.75879 3.39453 2.81186C3.14365 2.93969 2.93935 3.14398 2.81152 3.39487C2.75846 3.4991 2.71528 3.64883 2.69141 3.94077C2.66691 4.24078 2.66699 4.62967 2.66699 5.20053V10.8001C2.66699 11.371 2.6669 11.7599 2.69141 12.0599C2.71529 12.3517 2.75845 12.5016 2.81152 12.6058C2.93937 12.8565 3.14378 13.061 3.39453 13.1888C3.49875 13.2418 3.64874 13.2851 3.94043 13.3089C4.24044 13.3334 4.62936 13.3333 5.2002 13.3333H10.7998C11.3707 13.3333 11.7596 13.3334 12.0596 13.3089C12.3514 13.285 12.5013 13.2419 12.6055 13.1888C12.8563 13.061 13.0607 12.8566 13.1885 12.6058C13.2416 12.5016 13.2847 12.3518 13.3086 12.0599C13.3331 11.7599 13.333 11.371 13.333 10.8001V9.33334C13.3332 8.9653 13.6319 8.66733 14 8.66733C14.3679 8.6675 14.6668 8.96541 14.667 9.33334V10.8001C14.667 11.349 14.6667 11.8014 14.6367 12.1683C14.6061 12.5429 14.5408 12.8878 14.376 13.2113C14.1204 13.7127 13.7124 14.1207 13.2109 14.3763C12.8875 14.5411 12.5425 14.6064 12.168 14.6371C11.8011 14.667 11.3487 14.6673 10.7998 14.6673H5.2002C4.65132 14.6673 4.19892 14.667 3.83203 14.6371C3.4575 14.6064 3.11247 14.541 2.78906 14.3763C2.28763 14.1208 1.87966 13.7127 1.62402 13.2113C1.45923 12.8879 1.39391 12.5429 1.36328 12.1683C1.33331 11.8014 1.33301 11.349 1.33301 10.8001V5.20053C1.33301 4.65163 1.33332 4.19926 1.36328 3.83237C1.3939 3.45773 1.45923 3.11288 1.62402 2.7894C1.87965 2.28783 2.2875 1.87999 2.78906 1.62436C3.11255 1.45956 3.4574 1.39423 3.83203 1.36362C4.19893 1.33366 4.65129 1.33334 5.2002 1.33334H6.66699ZM14 1.33334C14.368 1.33353 14.667 1.63226 14.667 2.00034V6.00034C14.6668 6.36826 14.3679 6.66715 14 6.66733C13.6319 6.66733 13.3332 6.36838 13.333 6.00034V3.61069L8.47168 8.47202C8.21144 8.73226 7.7887 8.73204 7.52832 8.47202C7.26797 8.21167 7.26797 7.78901 7.52832 7.52866L12.3896 2.66733H10C9.63192 2.66733 9.33318 2.36838 9.33301 2.00034C9.33301 1.63215 9.63181 1.33334 10 1.33334H14Z" fill="white"/>
</svg>
