<svg
  xmlns="http://www.w3.org/2000/svg"
  width="24"
  height="24"
  viewBox="0 0 24 24"
  fill="none"
>
    <path
    d="M11.999 14C13.3251 14 14.5965 14.5272 15.5342 15.4648C16.4719 16.4025 16.999 17.6739 16.999 19V21C16.999 21.5523 16.5513 22 15.999 22C15.4468 21.9999 14.999 21.5522 14.999 21V19C14.999 18.2044 14.6827 17.4415 14.1201 16.8789C13.6279 16.3868 12.9825 16.0829 12.2959 16.0146L11.999 16H5.99902C5.20344 16 4.4405 16.3163 3.87793 16.8789C3.31538 17.4415 2.99902 18.2044 2.99902 19V21C2.99902 21.5523 2.55131 22 1.99902 22C1.44682 21.9999 0.999023 21.5522 0.999023 21V19C0.999023 17.674 1.52624 16.4025 2.46387 15.4648C3.40151 14.5272 4.67301 14 5.99902 14H11.999ZM18.0332 14.8799C18.1714 14.3453 18.7163 14.0241 19.251 14.1621C20.3235 14.4391 21.2744 15.064 21.9531 15.9395C22.6317 16.8149 23.0001 17.8914 23.001 18.999V21C23.0009 21.5522 22.5531 21.9999 22.001 22C21.4487 22 21.001 21.5522 21.001 21V19.001L20.9902 18.7529C20.942 18.1768 20.7284 17.6248 20.3721 17.165C19.9649 16.6397 19.3945 16.2638 18.751 16.0977C18.2163 15.9595 17.8951 15.4146 18.0332 14.8799ZM8.99902 2C11.7604 2 13.999 4.23858 13.999 7C13.999 9.76142 11.7604 12 8.99902 12C6.23768 11.9999 3.99902 9.76136 3.99902 7C3.99902 4.23864 6.23768 2.0001 8.99902 2ZM15.0332 2.87695C15.1718 2.34239 15.7174 2.02157 16.252 2.16016C17.324 2.43816 18.2734 3.06451 18.9512 3.94043C19.6289 4.81637 19.9971 5.89249 19.9971 7C19.997 8.10755 19.629 9.18364 18.9512 10.0596C18.2734 10.9355 17.3241 11.5619 16.252 11.8398C15.7175 11.9784 15.172 11.6574 15.0332 11.123C14.8946 10.5885 15.2155 10.0429 15.75 9.9043C16.3933 9.73751 16.9634 9.36149 17.3701 8.83594C17.7767 8.31043 17.997 7.66444 17.9971 7C17.9971 6.33559 17.7766 5.68958 17.3701 5.16406C16.9634 4.63852 16.3932 4.26251 15.75 4.0957C15.2155 3.95708 14.8947 3.4115 15.0332 2.87695ZM8.99902 4C7.34225 4.0001 5.99902 5.34321 5.99902 7C5.99902 8.65679 7.34225 9.9999 8.99902 10C10.6559 10 11.999 8.65685 11.999 7C11.999 5.34315 10.6559 4 8.99902 4Z"
    fill="#0086C9"
  />
</svg>
